<mxfile host="app.diagrams.net" modified="2024-05-22T11:45:18.084Z" agent="Mozilla/5.0 (Windows NT 10.0; Win64; x64) AppleWebKit/537.36 (KHTML, like Gecko) Chrome/123.0.0.0 Safari/537.36 OPR/109.0.0.0" etag="x3DH2EK4t8EOmMBV-NJs" version="24.3.1" type="github">
  <diagram name="1 oldal" id="pj4GQX1oL8ujKDz9aLDz">
    <mxGraphModel dx="841" dy="415" grid="1" gridSize="10" guides="1" tooltips="1" connect="1" arrows="1" fold="1" page="1" pageScale="1" pageWidth="827" pageHeight="1169" math="0" shadow="0">
      <root>
        <mxCell id="0" />
        <mxCell id="1" parent="0" />
        <mxCell id="eRL9AhovdLlchGVm_npt-1" value="- Elem" style="swimlane;fontStyle=0;align=center;verticalAlign=middle;childLayout=stackLayout;horizontal=1;startSize=55;horizontalStack=0;resizeParent=1;resizeParentMax=0;resizeLast=0;collapsible=0;marginBottom=0;html=1;whiteSpace=wrap;" vertex="1" parent="1">
          <mxGeometry x="100" y="56.5" width="180" height="183" as="geometry" />
        </mxCell>
        <mxCell id="eRL9AhovdLlchGVm_npt-2" value="- ertek: string" style="text;html=1;strokeColor=none;fillColor=none;align=left;verticalAlign=middle;spacingLeft=4;spacingRight=4;overflow=hidden;rotatable=0;points=[[0,0.5],[1,0.5]];portConstraint=eastwest;whiteSpace=wrap;" vertex="1" parent="eRL9AhovdLlchGVm_npt-1">
          <mxGeometry y="55" width="180" height="20" as="geometry" />
        </mxCell>
        <mxCell id="eRL9AhovdLlchGVm_npt-3" value="- szuloElem: HTML elem" style="text;html=1;strokeColor=none;fillColor=none;align=left;verticalAlign=middle;spacingLeft=4;spacingRight=4;overflow=hidden;rotatable=0;points=[[0,0.5],[1,0.5]];portConstraint=eastwest;whiteSpace=wrap;" vertex="1" parent="eRL9AhovdLlchGVm_npt-1">
          <mxGeometry y="75" width="180" height="20" as="geometry" />
        </mxCell>
        <mxCell id="eRL9AhovdLlchGVm_npt-4" value="- divElem: HTML elem" style="text;html=1;strokeColor=none;fillColor=none;align=left;verticalAlign=middle;spacingLeft=4;spacingRight=4;overflow=hidden;rotatable=0;points=[[0,0.5],[1,0.5]];portConstraint=eastwest;fontColor=#030303;whiteSpace=wrap;textShadow=0;" vertex="1" parent="eRL9AhovdLlchGVm_npt-1">
          <mxGeometry y="95" width="180" height="20" as="geometry" />
        </mxCell>
        <mxCell id="eRL9AhovdLlchGVm_npt-9" value="- index: int" style="text;html=1;strokeColor=none;fillColor=none;align=left;verticalAlign=middle;spacingLeft=4;spacingRight=4;overflow=hidden;rotatable=0;points=[[0,0.5],[1,0.5]];portConstraint=eastwest;fontColor=#030303;whiteSpace=wrap;textShadow=0;" vertex="1" parent="eRL9AhovdLlchGVm_npt-1">
          <mxGeometry y="115" width="180" height="20" as="geometry" />
        </mxCell>
        <mxCell id="eRL9AhovdLlchGVm_npt-6" value="" style="line;strokeWidth=1;fillColor=none;align=left;verticalAlign=middle;spacingTop=-1;spacingLeft=3;spacingRight=3;rotatable=0;labelPosition=right;points=[];portConstraint=eastwest;" vertex="1" parent="eRL9AhovdLlchGVm_npt-1">
          <mxGeometry y="135" width="180" height="8" as="geometry" />
        </mxCell>
        <mxCell id="eRL9AhovdLlchGVm_npt-8" value="- megjelenit: void" style="text;html=1;strokeColor=none;fillColor=none;align=left;verticalAlign=middle;spacingLeft=4;spacingRight=4;overflow=hidden;rotatable=0;points=[[0,0.5],[1,0.5]];portConstraint=eastwest;whiteSpace=wrap;" vertex="1" parent="eRL9AhovdLlchGVm_npt-1">
          <mxGeometry y="143" width="180" height="20" as="geometry" />
        </mxCell>
        <mxCell id="eRL9AhovdLlchGVm_npt-10" value="- trigger" style="text;html=1;strokeColor=none;fillColor=none;align=left;verticalAlign=middle;spacingLeft=4;spacingRight=4;overflow=hidden;rotatable=0;points=[[0,0.5],[1,0.5]];portConstraint=eastwest;whiteSpace=wrap;" vertex="1" parent="eRL9AhovdLlchGVm_npt-1">
          <mxGeometry y="163" width="180" height="20" as="geometry" />
        </mxCell>
        <mxCell id="eRL9AhovdLlchGVm_npt-32" style="edgeStyle=orthogonalEdgeStyle;rounded=0;orthogonalLoop=1;jettySize=auto;html=1;entryX=0;entryY=0.5;entryDx=0;entryDy=0;endArrow=open;endFill=0;" edge="1" parent="1" source="eRL9AhovdLlchGVm_npt-11" target="eRL9AhovdLlchGVm_npt-25">
          <mxGeometry relative="1" as="geometry" />
        </mxCell>
        <mxCell id="eRL9AhovdLlchGVm_npt-11" value="- JatekTer" style="swimlane;fontStyle=0;align=center;verticalAlign=middle;childLayout=stackLayout;horizontal=1;startSize=55;horizontalStack=0;resizeParent=1;resizeParentMax=0;resizeLast=0;collapsible=0;marginBottom=0;html=1;whiteSpace=wrap;" vertex="1" parent="1">
          <mxGeometry x="350" y="56.5" width="180" height="170" as="geometry" />
        </mxCell>
        <mxCell id="eRL9AhovdLlchGVm_npt-12" value="- jatekLISTA: []" style="text;html=1;strokeColor=none;fillColor=none;align=left;verticalAlign=middle;spacingLeft=4;spacingRight=4;overflow=hidden;rotatable=0;points=[[0,0.5],[1,0.5]];portConstraint=eastwest;whiteSpace=wrap;" vertex="1" parent="eRL9AhovdLlchGVm_npt-11">
          <mxGeometry y="55" width="180" height="20" as="geometry" />
        </mxCell>
        <mxCell id="eRL9AhovdLlchGVm_npt-16" value="" style="line;strokeWidth=1;fillColor=none;align=left;verticalAlign=middle;spacingTop=-1;spacingLeft=3;spacingRight=3;rotatable=0;labelPosition=right;points=[];portConstraint=eastwest;" vertex="1" parent="eRL9AhovdLlchGVm_npt-11">
          <mxGeometry y="75" width="180" height="95" as="geometry" />
        </mxCell>
        <mxCell id="eRL9AhovdLlchGVm_npt-19" value="- AllapotKezelo" style="swimlane;fontStyle=0;align=center;verticalAlign=middle;childLayout=stackLayout;horizontal=1;startSize=55;horizontalStack=0;resizeParent=1;resizeParentMax=0;resizeLast=0;collapsible=0;marginBottom=0;html=1;whiteSpace=wrap;" vertex="1" parent="1">
          <mxGeometry x="580" y="56.5" width="180" height="225" as="geometry" />
        </mxCell>
        <mxCell id="eRL9AhovdLlchGVm_npt-20" value="- jatekLISTA: []" style="text;html=1;strokeColor=none;fillColor=none;align=left;verticalAlign=middle;spacingLeft=4;spacingRight=4;overflow=hidden;rotatable=0;points=[[0,0.5],[1,0.5]];portConstraint=eastwest;whiteSpace=wrap;" vertex="1" parent="eRL9AhovdLlchGVm_npt-19">
          <mxGeometry y="55" width="180" height="20" as="geometry" />
        </mxCell>
        <mxCell id="eRL9AhovdLlchGVm_npt-25" value="- lepes: int" style="text;html=1;strokeColor=none;fillColor=none;align=left;verticalAlign=middle;spacingLeft=4;spacingRight=4;overflow=hidden;rotatable=0;points=[[0,0.5],[1,0.5]];portConstraint=eastwest;whiteSpace=wrap;" vertex="1" parent="eRL9AhovdLlchGVm_npt-19">
          <mxGeometry y="75" width="180" height="20" as="geometry" />
        </mxCell>
        <mxCell id="eRL9AhovdLlchGVm_npt-21" value="" style="line;strokeWidth=1;fillColor=none;align=left;verticalAlign=middle;spacingTop=-1;spacingLeft=3;spacingRight=3;rotatable=0;labelPosition=right;points=[];portConstraint=eastwest;" vertex="1" parent="eRL9AhovdLlchGVm_npt-19">
          <mxGeometry y="95" width="180" height="50" as="geometry" />
        </mxCell>
        <mxCell id="eRL9AhovdLlchGVm_npt-26" value="- ellenorzesVissz: string" style="text;html=1;strokeColor=none;fillColor=none;align=left;verticalAlign=middle;spacingLeft=4;spacingRight=4;overflow=hidden;rotatable=0;points=[[0,0.5],[1,0.5]];portConstraint=eastwest;whiteSpace=wrap;" vertex="1" parent="eRL9AhovdLlchGVm_npt-19">
          <mxGeometry y="145" width="180" height="20" as="geometry" />
        </mxCell>
        <mxCell id="eRL9AhovdLlchGVm_npt-27" value="- ellenorzesFugg: string" style="text;html=1;strokeColor=none;fillColor=none;align=left;verticalAlign=middle;spacingLeft=4;spacingRight=4;overflow=hidden;rotatable=0;points=[[0,0.5],[1,0.5]];portConstraint=eastwest;whiteSpace=wrap;" vertex="1" parent="eRL9AhovdLlchGVm_npt-19">
          <mxGeometry y="165" width="180" height="20" as="geometry" />
        </mxCell>
        <mxCell id="eRL9AhovdLlchGVm_npt-28" value="- ellenorzesAtlo: string" style="text;html=1;strokeColor=none;fillColor=none;align=left;verticalAlign=middle;spacingLeft=4;spacingRight=4;overflow=hidden;rotatable=0;points=[[0,0.5],[1,0.5]];portConstraint=eastwest;whiteSpace=wrap;" vertex="1" parent="eRL9AhovdLlchGVm_npt-19">
          <mxGeometry y="185" width="180" height="20" as="geometry" />
        </mxCell>
        <mxCell id="eRL9AhovdLlchGVm_npt-30" value="- ellenorzes: boolean" style="text;html=1;strokeColor=none;fillColor=none;align=left;verticalAlign=middle;spacingLeft=4;spacingRight=4;overflow=hidden;rotatable=0;points=[[0,0.5],[1,0.5]];portConstraint=eastwest;whiteSpace=wrap;" vertex="1" parent="eRL9AhovdLlchGVm_npt-19">
          <mxGeometry y="205" width="180" height="20" as="geometry" />
        </mxCell>
        <mxCell id="eRL9AhovdLlchGVm_npt-31" style="edgeStyle=orthogonalEdgeStyle;rounded=0;orthogonalLoop=1;jettySize=auto;html=1;exitX=1;exitY=0.5;exitDx=0;exitDy=0;entryX=0;entryY=0.5;entryDx=0;entryDy=0;endArrow=open;endFill=0;" edge="1" parent="1" source="eRL9AhovdLlchGVm_npt-3" target="eRL9AhovdLlchGVm_npt-11">
          <mxGeometry relative="1" as="geometry" />
        </mxCell>
      </root>
    </mxGraphModel>
  </diagram>
</mxfile>
